<?xml version="1.0" standalone="no"?>
<!DOCTYPE svg PUBLIC "-//W3C//DTD SVG 20010904//EN"
 "http://www.w3.org/TR/2001/REC-SVG-20010904/DTD/svg10.dtd">
<svg version="1.0" xmlns="http://www.w3.org/2000/svg"
 width="79.000000pt" height="79.000000pt" viewBox="0 0 79.000000 79.000000"
 preserveAspectRatio="xMidYMid meet">
<metadata>
Created by potrace 1.11, written by Peter Selinger 2001-2013
</metadata>
<g transform="translate(0.000000,79.000000) scale(0.100000,-0.100000)"
fill="#000000" stroke="none">
<path d="M469 757 c-22 -10 -39 -22 -39 -26 0 -3 -11 -18 -24 -32 -30 -32 -51
-74 -61 -116 -8 -38 -12 -39 -45 -16 -33 23 -46 26 -105 25 -65 -2 -75 -3 -75
-14 0 -5 -4 -6 -10 -3 -5 3 -10 2 -10 -4 0 -5 -9 -13 -20 -16 -11 -4 -18 -10
-15 -14 2 -5 -2 -17 -10 -27 -8 -10 -15 -35 -15 -55 0 -45 36 -96 139 -200 92
-92 121 -127 141 -164 19 -35 65 -85 78 -85 6 0 14 10 18 23 4 12 9 24 13 27
3 3 15 22 25 43 11 21 27 47 35 57 9 10 23 27 31 37 8 10 33 41 56 68 83 101
149 207 137 219 -4 3 -2 6 4 6 5 0 10 6 11 13 0 6 4 36 7 65 4 29 3 61 -1 70
-4 9 -8 22 -8 27 -4 30 -46 77 -84 95 -53 25 -119 24 -173 -3z m172 -36 c10
-2 18 -41 9 -41 -5 0 -12 5 -15 10 -16 26 -140 -14 -167 -54 -4 -6 -10 -7 -13
-4 -6 6 17 31 75 81 12 10 76 15 111 8z m29 -123 c0 -22 -13 -23 -30 -3 -10
12 -10 18 0 30 11 13 15 13 21 3 5 -7 9 -21 9 -30z m-558 -200 c-7 -7 -12 -8
-12 -2 0 14 12 26 19 19 2 -3 -1 -11 -7 -17z m56 -43 c11 -3 25 -16 32 -30 7
-13 25 -29 39 -35 15 -6 35 -24 44 -39 20 -35 21 -41 5 -41 -13 0 -138 114
-138 126 0 3 -7 12 -15 20 -8 9 -15 20 -15 25 0 6 7 4 15 -5 8 -8 23 -17 33
-21z m212 -235 c0 -5 -2 -10 -4 -10 -3 0 -8 5 -11 10 -3 6 -1 10 4 10 6 0 11
-4 11 -10z"/>
</g>
</svg>
